# xmcd CD Database Entry
#
# Track frame offsets:
# 150
# 14037
# 30180
# 45587
# 63995
# 83750
# 98277
# 123392
# 137540
# 157032
# 168957
# 184660
# 205332
# 220537
# 238472
# 261177
#
# Disc length: 3716 seconds
#
# Revision: 4
# Processed by: cddbd v1.5.2PL0 Copyright (c) Steve Scherf et al.
# Submitted via: tcd 2.0b
#
DISCID=d00e8210
DTITLE=登川 誠仁 - SPIRITUAL UNITY
DYEAR=1900
DGENRE=
TTITLE0=くんじゃんジントーヨー
TTITLE1=なりたい節
TTITLE2=安里屋ユンタ
TTITLE3=戦後の嘆き
TTITLE4=緑の沖縄
TTITLE5=祝い節
TTITLE6=ナークニー〜ハンタ原
TTITLE7=新デンサー節
TTITLE8=ヒヤミカチ節
TTITLE9=油断しるな
TTITLE10=島の花
TTITLE11=具志川ナークニー
TTITLE12=ゆしぐとぅぬ宝
TTITLE13=かたいなか
TTITLE14=旅の空に
TTITLE15=うたのこころ
EXTD=
EXTT0=
EXTT1=
EXTT2=
EXTT3=
EXTT4=
EXTT5=
EXTT6=
EXTT7=
EXTT8=
EXTT9=
EXTT10=
EXTT11=
EXTT12=
EXTT13=
EXTT14=
EXTT15=
PLAYORDER=
